# xmcd CD database file
#
# Track frame offsets:
#	150
#	13401
#	21469
#	31697
#	44328
#	61158
#	74821
#	86087
#	95474
#	106350
#
# Disc length: 2167 seconds
#
# Revision: 5
# Processed by: cddbd v1.5.2PL0 Copyright (c) Steve Scherf et al.
# Submitted via: CDex 1.70beta2
#
DISCID=8708750a
DTITLE=Carlos Paredes - Na Corrente
DYEAR=1996
DGENRE=Misc
TTITLE0=A montanha e a planície
TTITLE1=Dança dos montanheses
TTITLE2=Dança dos camponeses
TTITLE3=Os senhores da terra
TTITLE4=Em memória de uma camponesa assassinada
TTITLE5=Sede e morte
TTITLE6=Balada de Coimbra
TTITLE7=Canção de Alcipe
TTITLE8=O fantoche
TTITLE9=Na corrente
EXTD=YEAR: 1996
EXTT0=
EXTT1=
EXTT2=
EXTT3=
EXTT4=
EXTT5=
EXTT6=
EXTT7=
EXTT8=
EXTT9=
PLAYORDER=
